<?xml version="1.0" encoding="utf-8"?>
<!-- Generator: Adobe Illustrator 24.1.3, SVG Export Plug-In . SVG Version: 6.00 Build 0)  -->
<svg version="1.1" id="Capa_1" xmlns="http://www.w3.org/2000/svg" xmlns:xlink="http://www.w3.org/1999/xlink" x="0px" y="0px"
	 viewBox="0 0 24 24" style="enable-background:new 0 0 24 24;" xml:space="preserve">
<style type="text/css">
	.st0{fill:#FFFFFF;}
</style>
<path class="st0" d="M18.5,16.5l-3.5-1.6C16.2,14,17,12.6,17,11c0-2.8-2.2-5-5-5c-2.8,0-5,2.2-5,5c0,1.6,0.8,3,1.9,3.9l-3.5,1.6
	c-0.3,0.1-0.6,0.4-0.9,0.6C3.6,15.7,3,13.9,3,12c0-5,4-9,9-9c5,0,9,4,9,9c0,1.9-0.6,3.7-1.6,5.1C19.2,16.9,18.9,16.7,18.5,16.5
	 M8,11c0-2.2,1.8-4,4-4s4,1.8,4,4s-1.8,4-4,4S8,13.2,8,11 M12,21c-2.7,0-5.1-1.2-6.7-3c0.2-0.2,0.4-0.4,0.6-0.5l4.1-1.9
	c0.6,0.3,1.3,0.4,2,0.4c0.7,0,1.4-0.2,2-0.4l4.1,1.9c0.3,0.1,0.5,0.3,0.6,0.5C17.1,19.8,14.7,21,12,21 M12,2C6.5,2,2,6.5,2,12
	s4.5,10,10,10s10-4.5,10-10S17.5,2,12,2"/>
</svg>
